<svg width="58" height="24" viewBox="0 0 58 24" fill="none" xmlns="http://www.w3.org/2000/svg">
<mask id="mask0_1_9" style="mask-type:luminance" maskUnits="userSpaceOnUse" x="0" y="0" width="58" height="24">
<path d="M0.530568 23.7826L57.9902 23.4326L57.8519 0.73252L0.392296 1.08252L0.530568 23.7826Z" fill="white"/>
</mask>
<g mask="url(#mask0_1_9)">
<path d="M44.3512 23.5158C46.5951 23.5021 48.7415 22.5734 50.3183 20.9339L55.4642 15.5833C57.041 13.9439 57.9189 11.728 57.9048 9.4231C57.8756 4.62338 54.0638 0.755602 49.391 0.784092C47.1471 0.797772 45.0007 1.72654 43.4239 3.366L39.8645 7.067C39.8645 7.0671 39.8644 7.0669 39.8645 7.067L29.4935 17.8505C28.7404 18.6335 27.7153 19.077 26.6436 19.0835C24.8494 19.0945 23.3209 17.9026 22.7834 16.2437L19.5103 19.6469C21.0276 22.055 23.6721 23.6419 26.6713 23.6236C28.9152 23.6099 31.0616 22.6812 32.6384 21.0417L46.5688 6.5572C47.3219 5.77419 48.347 5.33065 49.4187 5.32411C51.6504 5.31051 53.4709 7.1577 53.4848 9.45C53.4916 10.5508 53.0723 11.6091 52.3192 12.3922L47.1734 17.7427C46.4203 18.5257 45.3952 18.9692 44.3235 18.9758C42.5292 18.9867 41.0008 17.7948 40.4633 16.1358L37.1902 19.539C38.7075 21.9472 41.3519 23.5341 44.3512 23.5158Z" fill="#E8630A"/>
<path d="M28.8886 6.66509C29.6417 5.88208 30.6668 5.43854 31.7385 5.432C33.5325 5.42106 35.0608 6.61263 35.5985 8.2713L38.8715 4.86813C37.3541 2.46034 34.7098 0.873703 31.7108 0.891983C29.4669 0.905663 27.3205 1.83443 25.7437 3.47389L11.8132 17.9583C11.0602 18.7413 10.0351 19.1849 8.96337 19.1914C6.73165 19.205 4.91123 17.3578 4.89725 15.0655C4.89054 13.9647 5.30982 12.9064 6.06288 12.1234L11.2087 6.77288C11.9618 5.98987 12.9869 5.54633 14.0586 5.53979C15.8528 5.52886 17.3811 6.72065 17.9187 8.3795L21.1917 4.97623C19.6744 2.5682 17.03 0.981493 14.0309 0.999773C11.787 1.01345 9.64057 1.94222 8.06381 3.58169L2.91794 8.9322C1.34118 10.5717 0.463226 12.7876 0.477278 15.0925C0.506541 19.8921 4.31825 23.7599 8.99105 23.7315C11.235 23.7178 13.3814 22.789 14.9582 21.1496L28.8886 6.66509Z" fill="#035397"/>
</g>
</svg>
